<svg width="2160" height="2160" viewBox="0 0 2160 2160" fill="none" xmlns="http://www.w3.org/2000/svg">
<rect width="2160" height="2160" fill="#00FF00"/>
<path d="M877.15 1991.05C688.65 1991.05 566.85 1901.15 507.4 1783.7L672.7 1688C716.2 1759.05 772.75 1811.25 872.8 1811.25C956.9 1811.25 1010.55 1769.2 1010.55 1711.2C1010.55 1641.6 955.45 1616.95 862.65 1576.35L811.9 1554.6C665.45 1492.25 568.3 1413.95 568.3 1248.65C568.3 1096.4 684.3 980.4 865.55 980.4C994.6 980.4 1087.4 1025.35 1154.1 1142.8L996.05 1244.3C961.25 1181.95 923.55 1157.3 865.55 1157.3C806.1 1157.3 768.4 1195 768.4 1244.3C768.4 1305.2 806.1 1329.85 893.1 1367.55L943.85 1389.3C1116.4 1463.25 1213.55 1538.65 1213.55 1708.3C1213.55 1891 1070 1991.05 877.15 1991.05ZM1655.96 1991.05C1467.46 1991.05 1345.66 1901.15 1286.21 1783.7L1451.51 1688C1495.01 1759.05 1551.56 1811.25 1651.61 1811.25C1735.71 1811.25 1789.36 1769.2 1789.36 1711.2C1789.36 1641.6 1734.26 1616.95 1641.46 1576.35L1590.71 1554.6C1444.26 1492.25 1347.11 1413.95 1347.11 1248.65C1347.11 1096.4 1463.11 980.4 1644.36 980.4C1773.41 980.4 1866.21 1025.35 1932.91 1142.8L1774.86 1244.3C1740.06 1181.95 1702.36 1157.3 1644.36 1157.3C1584.91 1157.3 1547.21 1195 1547.21 1244.3C1547.21 1305.2 1584.91 1329.85 1671.91 1367.55L1722.66 1389.3C1895.21 1463.25 1992.36 1538.65 1992.36 1708.3C1992.36 1891 1848.81 1991.05 1655.96 1991.05Z" fill="black"/>
</svg>
